<svg xmlns="http://www.w3.org/2000/svg" height="1200" width="1600" version="1.1"
    xmlns:xlink="http://www.w3.org/1999/xlink"
    xmlns:svgjs="http://svgjs.com/svgjs">
    <g>
        <path d="M1100.5 268.25H506.53C466.31 268.25 433.79 300.77 433.79 340.99V899.04C433.79 939.27 466.31 971.79 506.53 971.79H1100.5C1140.72 971.79 1173.24 939.27 1173.24 899.04V340.99C1173.24 300.77 1140.59 268.25 1100.5 268.25Z" fill="#ffffff" opacity="1" stroke-width="4" stroke="#000000"></path>
        <path d="M513.33 397.41C529.85 397.41 543.23 384.03 543.23 367.5 543.23 350.98 529.85 337.6 513.33 337.6 496.8 337.6 483.42 350.98 483.42 367.5 483.42 384.03 496.8 397.41 513.33 397.41Z" fill="#f3ebe9" opacity="1" stroke-width="4" stroke="#000000"></path>
        <path d="M600.17 397.41C616.69 397.41 630.08 384.03 630.08 367.5 630.08 350.98 616.69 337.6 600.17 337.6 583.65 337.6 570.27 350.98 570.27 367.5 570.27 384.03 583.65 397.41 600.17 397.41Z" fill="#f3ebe9" opacity="1" stroke-width="4" stroke="#000000"></path>
        <path d="M687.15 397.41C703.67 397.41 717.06 384.03 717.06 367.5 717.06 350.98 703.67 337.6 687.15 337.6 670.63 337.6 657.25 350.98 657.25 367.5 657.25 384.03 670.63 397.41 687.15 397.41Z" fill="#f3ebe9" opacity="1" stroke-width="4" stroke="#000000"></path>
    </g>
    <g>
        <path d="M800 663.83V848.05C800 848.24 800 848.24 799.81 848.24 697.94 848.05 615.59 765.7 615.59 663.83 615.59 561.97 698.14 479.43 800 479.43V663.83Z" fill="#5d3719" opacity="1" stroke-width="4" stroke="#000000"></path>
        <path d="M800.2 663.83L975.24 607.05C975.44 607.05 975.44 607.05 975.44 607.24 1006.66 704.03 953.77 807.85 857.18 839.46 838.84 845.51 819.71 848.63 800.39 848.44 800.2 848.44 800.2 848.44 800.2 848.24V663.83C800 663.83 800 663.83 800.2 663.83Z" fill="#fe6f14" opacity="1" stroke-width="4" stroke="#000000"></path>
        <path d="M800.98 663.05L949.09 555.53H949.29C960.8 571.14 969.39 588.31 975.24 606.46 975.24 606.66 975.24 606.66 975.05 606.66L800.98 663.05C800.78 663.25 800.98 663.44 800.98 663.05Z" fill="#cecdce" opacity="1" stroke-width="4" stroke="#000000"></path>
        <path d="M800 663.44V479.62C800 479.43 800 479.43 800.2 479.43 861.08 479.43 913.19 505.96 949.09 555.34V555.53L800 663.44C800 663.64 800.2 663.64 800 663.44Z" fill="#c84f03" opacity="1" stroke-width="4" stroke="#000000"></path>
        <path d="M800.2 767.26C857.32 767.26 903.62 720.95 903.62 663.83 903.62 606.72 857.32 560.41 800.2 560.41 743.08 560.41 696.77 606.72 696.77 663.83 696.77 720.95 743.08 767.26 800.2 767.26Z" fill="#ffffff" opacity="1" stroke-width="4" stroke="#000000"></path>
        <path d="M800 663.83C788.29 663.83 778.93 654.27 778.93 642.56 778.93 630.86 788.49 621.49 800.2 621.49 811.91 621.49 821.27 631.05 821.27 642.56" stroke="#000000" stroke-width="4" stroke-linecap="round" stroke-linejoin="round" opacity="1" fill="none"></path>
        <path d="M800 663.83C811.71 663.83 821.27 673.2 821.27 684.91 821.27 696.62 811.91 706.18 800.2 706.18 788.49 706.18 778.93 696.81 778.93 685.1" stroke="#000000" stroke-width="4" stroke-linecap="round" stroke-linejoin="round" opacity="1" fill="none"></path>
        <path d="M800 621.49V610.56" stroke="#000000" stroke-width="4" stroke-linecap="round" stroke-linejoin="round" opacity="1" fill="none"></path>
        <path d="M799.81 717.11V706.18" stroke="#000000" stroke-width="4" stroke-linecap="round" stroke-linejoin="round" opacity="1" fill="none"></path>
    </g>
    <g>
        <path d="M1239.17 741.61C1225.46 741.61 1216.93 738.6 1215.13 733.13 1213.11 726.91 1219.71 718.29 1233.74 708.86 1248.03 699.3 1267.72 690.14 1289.2 683.05 1313.39 675.02 1337.13 670.42 1354.35 670.42 1368.07 670.42 1376.6 673.43 1378.39 678.9 1382.56 691.53 1349.38 713.99 1304.44 728.98 1280.14 737 1256.36 741.61 1239.17 741.61Z" fill="#fe6f14" opacity="1" stroke-width="4" stroke="#000000"></path>
        <path d="M1239.06 741.61C1225.14 741.61 1216.82 738.68 1215.02 733.13L1214.91 732.91 1378.12 678.65 1378.27 678.9C1378.96 681.06 1378.62 683.53 1377.25 686.25 1370.72 699.32 1340.68 716.9 1304.2 728.98 1280.03 737 1256.28 741.61 1239.06 741.61Z" fill="#fe6f1400" opacity="0" stroke-width="4" stroke="#ffffff00"></path>
        <path d="M1377.68 678.8L1216.52 730.64" stroke="#000000" stroke-width="4" stroke-linecap="round" stroke-linejoin="round" opacity="1" fill="none"></path>
        <path d="M1150.48 778.46C1137.17 778.46 1113.7 751.26 1095.9 715.21 1086.33 695.73 1079.55 676.23 1076.85 660.31 1074.14 644.33 1075.96 633.92 1081.94 630.98 1083 630.45 1084.23 630.19 1085.67 630.19 1098.98 630.19 1122.45 657.37 1140.24 693.44 1149.82 712.92 1156.59 732.42 1159.3 748.32 1162 764.32 1160.19 774.73 1154.21 777.66 1153.04 778.31 1151.53 778.46 1150.48 778.46Z" fill="#fe6f14" opacity="1" stroke-width="4" stroke="#000000"></path>
        <path d="M1150.48 778.35C1136.9 778.35 1113.94 751.75 1095.9 715.1 1086.16 695.38 1079.39 675.89 1076.85 660.2 1074.14 644.22 1075.96 633.81 1081.94 630.87L1082.17 630.75 1154.44 777.4 1154.21 777.55C1153.25 778.09 1152.03 778.35 1150.48 778.35Z" fill="#fe6f1400" opacity="0" stroke-width="4" stroke="#ffffff00"></path>
        <path d="M1197.7 761.1C1195.74 761.1 1193.93 760.63 1192.49 759.74 1189.98 758.3 1188.19 755.67 1187.17 751.92 1182.7 735.31 1194.15 698.46 1215.02 662.32 1238.24 622.09 1266.78 592.89 1282.9 592.89 1284.86 592.89 1286.65 593.36 1288.1 594.24 1294.96 598.24 1296.32 610.58 1291.95 629 1287.68 647.31 1278.31 669.57 1265.57 691.66 1242.35 731.89 1213.8 761.1 1197.7 761.1Z" fill="#fe6f14" opacity="1" stroke-width="4" stroke="#000000"></path>
        <path d="M1197.78 761.1C1195.82 761.1 1194.01 760.63 1192.57 759.74L1192.35 759.63 1287.91 594.14 1288.18 594.24C1290.69 595.68 1292.48 598.31 1293.5 602.05 1297.98 618.63 1286.58 655.48 1265.76 691.66 1242.43 731.89 1213.84 761.1 1197.78 761.1Z" fill="#fe6f1400" opacity="0" stroke-width="4" stroke="#ffffff00"></path>
        <path d="M1082.41 632.59L1171.44 811.67" stroke="#000000" stroke-width="4" stroke-linecap="round" stroke-linejoin="round" opacity="1" fill="none"></path>
        <path d="M1286.39 595.4L1163.55 811.67" stroke="#000000" stroke-width="4" stroke-linecap="round" stroke-linejoin="round" opacity="1" fill="none"></path>
        <path d="M1070.8 971.52C1061.94 959.28 1057.46 946.19 1057.46 932.6 1057.46 896.63 1088.91 865.18 1135.7 854.35L1118.77 792.64 1220.8 792.59 1204.04 854.4C1250.82 865.18 1282.26 896.63 1282.26 932.6 1282.26 946.17 1277.69 959.58 1269.06 971.39L1268.94 971.52H1070.8V971.52Z" fill="#c84f03" opacity="1" stroke-width="4" stroke="#000000"></path>
        <path d="M1137.07 853.91H1161.86" stroke="#000000" stroke-width="4" stroke-linecap="round" stroke-linejoin="round" opacity="1" fill="none"></path>
        <path d="M1233.05 971.52V971.37L1233.29 971.01C1241.91 959.21 1246.46 945.89 1246.46 932.49 1246.46 896.74 1215.13 865.45 1168.5 854.65L1168.28 854.65 1185.16 792.62 1220.8 792.59 1204.04 854.4C1250.82 865.18 1282.26 896.63 1282.26 932.6 1282.26 946.16 1277.69 959.58 1269.06 971.39L1268.94 971.52H1233.05Z" fill="#c84f0300" opacity="0" stroke-width="4" stroke="#ffffff00"></path>
        <path d="M1169.75 821.62C1137.97 821.62 1119.73 794.05 1120 792.78L1120.83 792.64 1215.79 792.62 1220.44 792.63C1220.42 797.11 1201.54 821.62 1169.75 821.62Z" fill="#000000" opacity="1" stroke-width="4" stroke="#000000"></path>
    </g>
    <g>
        <path d="M405.1 377.59C360.31 388.88 333.2 434.22 344.35 478.93 350.45 503.31 367.33 523.71 390.11 534.32 404.88 541.12 415.61 554.33 419.27 570.08L425.63 578.18 473.75 567.34 478.85 556.65C475.32 540.99 479.23 524.48 489.57 512.14 519.15 476.73 514.56 424.11 479.13 394.41 458.59 377.34 431.05 371.03 405.1 377.59Z" fill="#fe6f14" opacity="1" stroke-width="4" stroke="#000000"></path>
        <path d="M419.3 570.19L423.98 590.96C427.69 607.41 443.96 617.69 460.41 613.99 476.87 610.28 487.15 594.01 483.44 577.55L478.76 556.79 419.3 570.19Z" fill="#5d3719" opacity="1" stroke-width="4" stroke="#000000"></path>
        <path d="M419.27 570.08L478.85 556.65" stroke="#000000" stroke-width="4" stroke-linecap="round" stroke-linejoin="round" opacity="1" fill="none"></path>
        <path d="M422.98 586.53L482.45 573.13" stroke="#000000" stroke-width="4" stroke-linecap="round" stroke-linejoin="round" opacity="1" fill="none"></path>
        <path d="M439.02 565.63L433.67 541.91C430.09 526.02 420.4 512.11 406.63 503.41 396.2 496.81 388.97 486.4 386.25 474.37 384.34 465.86 389.72 457.49 398.12 455.6 406.63 453.68 415 459.07 416.89 467.47L418.89 476.32C420.12 481.76 425.54 485.19 430.99 483.96 436.43 482.74 439.86 477.31 438.63 471.87L436.64 463.01C434.72 454.5 440.11 446.13 448.51 444.24L448.73 444.19C457.24 442.27 465.61 447.66 467.51 456.06 470.22 468.09 468.06 480.74 461.47 491.16 452.79 505.04 449.86 521.68 453.47 537.68L458.9 561.26" stroke="#000000" stroke-width="4" stroke-linecap="round" stroke-linejoin="round" opacity="1" fill="none"></path>
    </g>
    <g>
        <path d="M500.1 840.63C453.95 811.02 380.15 779.53 351.62 830.7 323.08 881.86 375.43 1045.7 434.27 1037.34 489.38 1029.46 404.75 890.72 314.22 878.91 223.7 867.1 224.68 999.94 266.01 987.15 292.77 978.89 276.24 908.24 182.47 910.89" stroke="#000000" stroke-width="4" stroke-linecap="round" stroke-linejoin="round" opacity="1" fill="none"></path>
    </g>
    <g>
        <path d="M1097.55 409.33L1226.41 241.01" stroke="#000000" stroke-width="4" stroke-linecap="round" stroke-linejoin="round" opacity="1" fill="none"></path>
        <path d="M1262.28 371.92L1433.75 235.79" stroke="#000000" stroke-width="4" stroke-linecap="round" stroke-linejoin="round" opacity="1" fill="none"></path>
    </g>
    <g>
        <path d="M278.33 748.5C296.94 748.5 312.03 763.59 312.03 782.2 312.03 800.82 296.94 815.91 278.33 815.91 259.71 815.91 244.62 800.82 244.62 782.2 244.62 763.59 259.71 748.5 278.33 748.5Z" fill="#c84f03" opacity="1" stroke-width="4" stroke="#000000"></path>
    </g>
    <g>
        <path d="M1323.39 442.12C1346.43 442.12 1365.11 460.8 1365.11 483.83 1365.11 506.87 1346.43 525.54 1323.39 525.54 1300.36 525.54 1281.68 506.87 1281.68 483.83 1281.68 460.8 1300.36 442.12 1323.39 442.12Z" fill="#5d3719" opacity="1" stroke-width="4" stroke="#000000"></path>
    </g>
    <g>
        <path d="M585.16 223.43C599.35 223.43 610.86 211.92 610.86 197.73 610.86 183.53 599.35 172.02 585.16 172.02 570.96 172.02 559.45 183.53 559.45 197.73 559.45 211.92 570.96 223.43 585.16 223.43Z" fill="#ffffff" opacity="1" stroke-width="4" stroke="#000000"></path>
    </g>
</svg>