<?xml version="1.0" encoding="utf-8"?>
<!-- Generator: Adobe Illustrator 25.0.0, SVG Export Plug-In . SVG Version: 6.00 Build 0)  -->
<svg version="1.1" id="Capa_1" xmlns="http://www.w3.org/2000/svg" xmlns:xlink="http://www.w3.org/1999/xlink" x="0px" y="0px"
	 viewBox="0 0 2560 1280" style="enable-background:new 0 0 2560 1280;" xml:space="preserve">
<style type="text/css">
	.st0{fill:#383D46;}
	.st1{fill:#FE6F14;}
</style>
<g id="LETRAS_1_">
	<path class="st0" d="M2435.8,767.8c-12.5-1.6-24.1-9.7-28.2-19.2c-4.9-10.7-7.1-34.8-7.4-71v-32.2h-10.4c-10,0-12.9-1.9-12.9-8.6
		c0-1,7-9.5,15.6-18.6c10.1-11,18.3-22.3,23.8-33.1c4.5-8.9,10.4-17.7,12.9-19.5l4.6-3l0.1,21.7c0.1,12,0.4,23.3,0.6,25.1
		c0.1,2.5,4,3.4,18.1,3.9c11,0.4,18.3,1.6,19.5,3.1c1.9,3,2.1,17.5,0.4,24.1c-1.3,4.2-2.7,4.6-19.6,5.2l-18.1,0.6v35.8
		c0,51,1.3,53.8,23.2,53.8c15.5,0,16.6,1,18.6,16.5c1,8.9,0.9,9.2-5.5,12C2462.3,768,2447.7,769.1,2435.8,767.8z"/>
	<path class="st0" d="M2278.6,767.8c-12.9-2.1-39.8-14.1-41.8-18.7c-1-3.1,10.6-23.6,13.7-23.6c0.9,0,5.9,1.9,11.1,4.2
		c14.3,6.4,31.1,8.9,41.8,6.5c10.4-2.4,14.6-6.7,14.6-15.2c0-4.9-1.6-6.4-12-10.7c-6.7-3-18.7-7.4-27-10.1
		c-23-7.6-34.8-17.5-39.8-34.2c-8.6-27.8,14.1-51.7,51.7-53.9c10-0.6,19.2,0,24.2,1.6c14.6,4.9,30.6,12.9,31.8,16
		c1.3,3.1-11.1,24.1-14.3,24.1c-1,0-5.5-1.5-10-3.4c-24.2-10.1-51-6.5-51,6.7c0,5.5,10.6,12,30.2,18.7c24.5,8.5,36.4,15.2,45.3,25.1
		c7.6,8.6,9.7,17.2,7.7,30.2c-1,8-3.4,11.6-12.2,20.5C2327.8,766.5,2305.9,772,2278.6,767.8L2278.6,767.8z"/>
	<path class="st0" d="M2113.5,767.5c-22-3.9-45.2-21.3-56.5-42.8c-5.2-10.1-5.6-13.1-5.6-34.2c0-21.3,0.4-24.1,5.9-34.8
		c22.3-43.2,73.6-57.1,115.5-31.4c25.7,16,39.8,50.4,33.3,81.6c-3.1,15.8-8.6,26.2-20.1,38.3c-11.4,12.2-25.6,20.1-41.8,23
		C2130.4,769.9,2127.5,769.9,2113.5,767.5z M2152.3,731.1c4.5-2.5,11-8.6,14.6-13.7c12.9-17.7,9.7-47.7-6.4-61.8
		c-10.1-8.9-19.5-12.5-31.7-12.5c-13.5,0.1-25.6,5.9-34.9,16.8c-18.7,22-15,50.8,8.9,70.1C2113.5,738.8,2137.6,739.3,2152.3,731.1
		L2152.3,731.1z"/>
	<path class="st0" d="M1872.7,765.4c-0.1-1-0.4-57.1,0-124.4l0.4-122.5l16.5,0.6l16.2,0.6l0.6,107.1l0.4,106.8h59.9
		c37.7,0,60.3,0.9,60.8,2.1c0.4,1,0.1,8.5-0.4,16.2l-1,14.3l-76.4,0.6C1899.8,767.4,1873.3,766.9,1872.7,765.4z"/>
	<path class="st0" d="M1683.7,763.1c-19.5-6.1-35.7-21.5-42.6-39.8c-5.6-15-4.6-40.3,1.9-55c4.9-10.1,19.5-25.1,32.7-33.3
		c8-4.9,9.5-7.4,5.6-9.7c-1.3-0.9-7-8-12.6-16.2c-17.2-24.7-18.6-48.3-3.6-70.6c12.2-18.3,29.6-26.3,55.4-26.3
		c21.5,0,34.2,4.6,45.8,17.1c13.2,14.3,17.2,23.6,17.2,41.3c0,16.2-3.9,26.3-14.3,38.9c-7.4,8.6-28.7,25.3-32.4,25.3
		c-4.5,0-3.1,3,6.4,14.1c4.9,5.9,13.1,15.8,18.3,22.3c5.2,6.5,10.6,11.7,11.7,12c2.5,0,7.4-10.6,13.2-28.5
		c8.2-25.7,6.4-24.2,30.6-24.2c11.7,0,22.3,0.9,23.8,1.6c1.6,1,1.6,4.2-0.4,12.6c-3.9,14.6-4.5,15.2-12.5,15.2
		c-5.6,0-7.4,1.3-10.4,7.4c-1.9,4.2-3.6,8.5-3.6,9.7c0,1-3.6,9.7-7.7,19.2l-7.7,17.1l9.1,8c5.1,4.6,14.6,10.1,21.3,12.6
		c13.5,4.9,14.3,6.4,13.1,21.3c-0.6,8.5-1.5,10-6.1,10.7c-10.1,1.9-32.7-4.5-44.4-12.5c-6.1-4.2-12-9.2-13.1-11.1
		c-1.6-3-2.5-2.7-7.7,2.1c-11.1,10.4-19.5,14.7-35.7,18.7C1714.6,768.6,1701,768.6,1683.7,763.1L1683.7,763.1z M1731.6,731.1
		c8.9-2.7,23.6-12.6,23.6-15.8c0-0.9-2.5-4.6-5.6-8.2c-3.4-3.6-14.3-17.1-24.8-29.9c-10.4-12.9-19.8-23.2-21.1-23.3
		c-1,0-6.7,3.6-12.5,8c-25.7,19.5-25.3,49.5,0.6,66C1702.4,734.7,1716,735.7,1731.6,731.1L1731.6,731.1z M1722.1,607.5
		c12-8.2,26.3-24.1,28.1-31.1c0.9-3.1,0-10-1.6-15.5c-7.4-23.6-42.9-26.2-56.5-4c-2.4,3.9-4.2,9.1-4.2,11.4
		c0,8.9,6.5,22.7,14.7,31.7c4.6,5.1,8.5,10.1,8.5,11.4C1710.9,614.7,1712.6,614.3,1722.1,607.5z"/>
	<path class="st0" d="M1587.1,767.8c-14.1-2.4-23.3-8.6-28.7-19.2c-4.2-8.6-4.6-13.5-5.6-55.9l-1-46.4l-10.6-0.6
		c-18.3-1.3-17.5-7.1,4-29.9c10-10.6,17.7-21.3,23.3-32.7c6.4-12.5,9.7-16.8,12.6-16.8c4,0,4.2,1.6,4.9,23.6l0.6,23.6l18.3,0.6
		l18.3,0.6v14.7v14.7l-18.3,0.6l-18.6,0.6v38.3c0,21.1,0.6,40.4,1.3,43.2c2.1,7.6,11.4,11.1,23,9.1c8.6-1.6,10.1-1.3,12.6,2.7
		c1.6,2.4,3.6,8.5,4.5,13.2c1.3,8.9,1.3,9.1-5.6,12C1612.7,768,1597.8,769.4,1587.1,767.8z"/>
	<path class="st0" d="M1358,762.9c-3-4-3.4-13.1-3.4-61.1v-56.5h-12.6h-12.6v-11.7c0-16.8,2.1-19.8,14.6-19.8h10.4l0.9-25.7
		c1.3-30.2,4.6-41.3,15.8-52.8c12.5-12.9,25.7-17.5,49.2-17.1c20.5,0.1,38.2,5.2,40.4,11.6c1.6,4.5-8.5,24.8-12,24.8
		c-1.9,0-8.2-1.5-14-3.4c-20.8-7-41.8,3-45.2,20.8c-0.6,3.9-1,14.3-0.6,23.6l0.6,16.8l49.5,0.6c27.2,0.1,50.2,1.3,51,2.1
		c1.3,1.3,2.4,87.2,1.6,146.5c0,5.5-0.1,5.6-12,5.6c-6.7,0-13.5-0.9-15-1.6c-5.2-3.6-6.7-17.5-6.7-68.4v-52.3h-34.8h-34.8l-0.4,60.8
		l-0.6,60.5l-13.1,0.6C1362.7,767.8,1361,767.1,1358,762.9L1358,762.9z"/>
	<path class="st0" d="M1213.4,768.1c-20.2-3.4-38.2-13.7-49.5-28.7c-12.9-16.8-16.5-27.3-16.6-48.9c-0.1-17.1,0.4-20.5,6.4-32.7
		c20.2-42.4,67.5-58.3,110.4-36.7c12,5.9,27,22,33.7,35.7c7.4,15.5,8.5,43.8,2.4,60.5C1286.5,752.8,1249.9,774.3,1213.4,768.1z
		 M1246.8,732.9c3.1-1.6,9.2-7,13.2-11.4c19.8-22,13.5-58.4-12.6-72.7c-23.3-12.6-53.1-3-64,21.3c-5.1,11.4-5.5,28.8-0.9,38.6
		c4.6,10,18.1,23.2,26.7,26.6C1218,738.4,1238.4,737.2,1246.8,732.9L1246.8,732.9z"/>
	<path class="st0" d="M1017.7,691.3l0.6-76.5l13.1-0.6c12.6-0.6,13.1-0.4,16.5,5.9c1.6,3.4,3.9,6.4,4.2,6.4c0.6,0,7-3.1,14.1-6.7
		c11.1-6.1,15-7,27.8-6.7c14.6,0,30.2,5.2,33.9,11.4c0.9,1.3-2.1,7.6-6.4,14c-6.5,10-8.6,11.6-12.5,10.4
		c-20.7-6.4-32.2-5.6-44.9,2.4c-11.4,7.4-12.2,10.6-13.2,65.1l-1,50.5l-16.5,0.6l-16.2,0.6L1017.7,691.3L1017.7,691.3z"/>
	<path class="st0" d="M809.6,762.9c-0.6-2.7-0.9-58.4-0.6-123.9l0.6-119.2l55.9-0.6c50.4-0.4,56.9-0.1,67.9,3.6
		c30.3,10.4,50.8,35.4,57.4,70.1c1.9,10.6-3.9,36.9-10.7,49.5c-7.4,12.9-22.6,27.8-34.8,33.7c-14.3,7.1-28.2,9.1-66.1,9.1h-34.6
		v37.7c0,20.8-0.6,39.2-1.3,41.2c-1,2.7-4.6,3.4-16.8,3.4C812,767.5,810.7,767.1,809.6,762.9z M925.1,647.4
		c20.1-8.9,29.6-23.3,29.7-45.3c0.1-19.2-4.2-28.2-19.5-39.7l-11.6-8.9l-39.8-0.6l-39.7-0.9v49.8v49.8h35.7
		C911,651.6,916.8,651,925.1,647.4L925.1,647.4z"/>
</g>
<g id="LOGO_1_">
	<path id="cerdo" class="st1" d="M243.2,969.2c-8.6-3.3-13.6-12.4-25.4-47.7c-5.7-16.8-11.5-32.3-12.8-34.4c-1.1-2.1-7.1-6.5-13-9.9
		c-6.1-3.3-20.3-12.1-32-19.3c-11.5-7.3-29.4-18.2-39.6-24.3c-10.1-5.9-20.3-13.4-22.6-16.6c-6.5-8.6-7.5-23-6.7-87.8
		c0.6-57,0.7-59.1,5-65.8c5.1-8.4,11.9-11.5,30-13.2c13.7-1.3,13.7-1.3,22.2-11.3c4.4-5.3,13.2-16.5,19.2-24.5
		c12.2-16.3,12.1-15.5,3.1-33.6c-17.2-35-24.9-53.7-24.9-60.7c0-20.8,19.5-29.6,65.8-29.6c24.7,0.2,32.3,1.5,55.5,10.9l17,6.9
		l20.3-9.7c28.9-13.9,43.1-19,65.6-23.6c51.5-10.1,100.5-8,147.9,6.1c7.5,2.3,14.4,4.8,15.3,5.5c1.1,0.7,5.3,2.5,9.5,3.8
		c4.2,1.3,16.3,7.1,26.8,12.8C670.3,558.8,716.9,661.5,688,763.9c-8.6,30.4-21.8,54.9-44.4,82.8c-6.7,8.2-12.1,16.1-12.1,17.6
		s-1.7,6.5-3.8,10.9c-2.1,4.6-9.3,23.6-16.3,42.2c-15.1,41.5-16.4,44-24.5,49c-6.1,3.8-9.2,4-50.7,4h-44.2l-6.3-6.3
		c-3.6-3.6-8.2-11.9-10.9-18.8c-2.5-6.7-5.3-14.6-6.3-17.4c-1.5-4.2-2.9-5-7.1-4.4c-2.7,0.6-20.5,2.3-39.4,4
		c-19,1.5-39.2,3.6-45,4.2l-10.5,1.3l-6.7,13.2c-3.8,7.1-9.5,15.5-13,18.6l-6.1,5.5l-47.5-0.2C267.3,970.4,244.8,969.8,243.2,969.2
		L243.2,969.2z M570.4,881.1c17-46.1,18.2-48.4,33.1-66.7c21-26.2,33.8-53,39.8-83.2c7.1-36.9-1.9-80-24.3-115.5
		c-20.7-33.3-60.7-65.1-98.3-78.2c-7.9-2.7-16.1-5.7-18.2-6.7c-2.1-0.9-12.1-3.6-22-5.9c-27.6-6.3-71.2-5.9-102,0.9
		c-12.4,2.7-28.3,7.7-35.2,10.7c-6.9,3.3-14.4,5.7-16.4,5.7c-3.1,0-3.5,0.9-2.5,5.3c4.8,20.3,2.5,29.8-9,36.7
		c-14.4,8.8-25.8,4-43.1-18c-2.3-3.1-8.8-8.4-14.4-12.1c-16.5-10.5-47.3-18-47.3-11.5c0,1.5,5.1,13.6,11.5,26.8
		c11.9,25,13.9,35,9.3,44c-2.3,4.4-37.9,50.9-53.7,70.4c-7.5,9-10.5,11.3-16.3,12.4c-4,0.6-9.7,1.7-13,2.5l-5.7,1.3l-0.6,43.3
		l-0.4,43.3l16.6,9.9c20.5,12.2,62.7,38.2,76.7,47.3c12.4,8.2,13.7,10.1,22.2,35c3.8,11.1,8.6,24.5,10.5,29.6l3.6,9.5l22.8,0.6
		l22.8,0.6l5.1-11.1c2.9-6.1,7.3-13.4,9.7-16.3c8-8.4,9-8.6,100.5-16.8c60.5-5.3,60.5-5.3,68.9,3.5c4.6,4.8,8.4,12.1,11.7,21.4
		c6.5,19.7,7.3,20.3,27,19.5l16.4-0.6L570.4,881.1L570.4,881.1z"/>
	<path id="coin" class="st1" d="M599.6,491.7c-4-3.6-8.8-7.1-10.5-7.7c-4.4-1.5-4.4-6.3,0.2-12.1c7.1-9.2,12.4-29.1,12.2-45.9
		c-0.6-33.6-20.3-62.2-52.2-75c-54.7-22.4-116.5,20.3-116.7,80.4c0,8.8-0.2,9-7.1,10.3c-4,0.7-10.7,1.5-15,1.5l-7.7,0.2l-0.6-11.3
		c-1.7-32.9,12.2-66.2,37.3-89.2c18.8-17.2,52.4-30.6,76.6-30.6c13.4,0,37.5,5,49,10.3c11.1,5,27,17,39,29.3
		c23,23.7,33.8,63.9,26.8,98.5c-3.6,17.4-18.2,47.5-23.2,47.5C607.3,498,603.5,495.1,599.6,491.7L599.6,491.7z"/>
</g>
<g id="EXTRAS">
	<g id="COLORES">
		<rect id="NARANJA" x="59.5" y="-244.6" class="st1" width="169.1" height="169.1"/>
		<rect id="GRIS" x="286.1" y="-244.6" class="st0" width="169.1" height="169.1"/>
	</g>
	<g id="GUIAS">
	</g>
</g>
</svg>
