<?xml version="1.0" encoding="utf-8"?>
<!-- Generator: Adobe Illustrator 25.0.0, SVG Export Plug-In . SVG Version: 6.00 Build 0)  -->
<svg version="1.1" id="Capa_1" xmlns="http://www.w3.org/2000/svg" xmlns:xlink="http://www.w3.org/1999/xlink" x="0px" y="0px"
	 viewBox="0 0 1280 1280" style="enable-background:new 0 0 1280 1280;" xml:space="preserve">
<style type="text/css">
	.st0{fill:#383D46;}
	.st1{fill:#FE6F14;}
</style>
<g id="LOGO_x2B_LETRAS">
	<g id="LETRAS">
		<path class="st0" d="M354.8,1001.3c-13.5-2.3-25.5-9.1-33.1-19.1c-8.6-11.3-11-18.3-11.1-32.6c-0.1-11.4,0.3-13.6,4.2-21.8
			c13.5-28.3,45-38.8,73.7-24.5c8,3.9,18,14.6,22.5,23.8c4.9,10.3,5.6,29.3,1.5,40.4C403.6,991,379.2,1005.3,354.8,1001.3z
			 M377.1,977.8c2.1-1.1,6.2-4.6,8.9-7.6c13.2-14.6,9-39-8.4-48.5c-15.6-8.4-35.4-2-42.8,14.2c-3.4,7.6-3.7,19.3-0.6,25.7
			c3.1,6.6,12.1,15.5,17.9,17.7C357.8,981.4,371.5,980.6,377.1,977.8L377.1,977.8z"/>
		<path class="st0" d="M604.2,1001c-9.4-1.5-15.6-5.8-19.1-12.8c-2.8-5.8-3.1-9-3.8-37.3l-0.8-30.9l-7-0.4
			c-12.2-0.8-11.7-4.8,2.7-20c6.6-7,11.8-14.2,15.6-21.8c4.2-8.3,6.5-11.3,8.4-11.3c2.7,0,2.8,1.1,3.2,15.8l0.4,15.8l12.2,0.4
			l12.2,0.4v9.8v9.8l-12.2,0.4l-12.4,0.4V945c0,14.1,0.4,27,0.8,28.8c1.4,5.1,7.6,7.5,15.3,6c5.8-1.1,6.8-0.8,8.4,1.8
			c1.1,1.5,2.4,5.6,3,8.9c0.8,5.9,0.8,6-3.8,8C621.2,1001.1,611.3,1002.1,604.2,1001z"/>
		<path class="st0" d="M955.4,1000.8c-14.6-2.5-30.1-14.2-37.7-28.6c-3.5-6.8-3.8-8.7-3.8-22.8c0-14.2,0.3-16,3.9-23.2
			c14.9-28.8,49.1-38.1,77.1-21c17.2,10.7,26.6,33.6,22.2,54.4c-2.1,10.6-5.8,17.4-13.4,25.6s-17,13.4-27.9,15.3
			C966.7,1002.4,964.7,1002.4,955.4,1000.8z M981.3,976.5c3-1.7,7.3-5.8,9.7-9.1c8.6-11.8,6.5-31.8-4.2-41.2
			c-6.8-5.9-12.9-8.3-21.1-8.3c-9,0.1-17,3.9-23.4,11.3c-12.5,14.6-10,33.9,5.9,46.8C955.4,981.7,971.4,982,981.3,976.5L981.3,976.5
			z"/>
		<path class="st0" d="M1065.6,1001c-8.6-1.4-26.6-9.4-27.9-12.5c-0.7-2.1,7-15.8,9.1-15.8c0.6,0,3.9,1.3,7.5,2.8
			c9.6,4.2,20.7,5.9,27.9,4.4c6.9-1.5,9.7-4.5,9.7-10.1c0-3.2-1.1-4.2-8-7.2c-4.5-2-12.5-4.9-18-6.8c-15.3-5.1-23.2-11.7-26.6-22.8
			c-5.8-18.6,9.4-34.5,34.5-36c6.6-0.4,12.8,0,16.2,1.1c9.7,3.2,20.4,8.6,21.2,10.7c0.8,2.1-7.5,16-9.6,16c-0.7,0-3.7-1-6.6-2.3
			c-16.2-6.8-34-4.4-34,4.5c0,3.7,7,8,20.1,12.5c16.3,5.6,24.3,10.1,30.2,16.7c5.1,5.8,6.5,11.5,5.2,20.1c-0.7,5.3-2.3,7.7-8.2,13.6
			C1098.3,1000.1,1083.8,1003.8,1065.6,1001L1065.6,1001z"/>
		<path class="st0" d="M1170.5,1001c-8.3-1.1-16-6.5-18.8-12.8c-3.2-7.2-4.8-23.2-4.9-47.4v-21.5h-6.9c-6.6,0-8.6-1.3-8.6-5.8
			c0-0.7,4.6-6.3,10.4-12.4c6.8-7.3,12.2-14.9,15.9-22.1c3-5.9,6.9-11.8,8.6-12.9l3.1-2l0.1,14.5c0.1,8,0.3,15.6,0.4,16.7
			c0.1,1.7,2.7,2.3,12.1,2.5c7.3,0.3,12.2,1.1,12.9,2.1c1.3,2,1.4,11.7,0.3,16c-0.8,2.8-1.8,3.1-13.1,3.5l-12.1,0.4v23.9
			c0,34,0.8,35.9,15.5,35.9c10.3,0,11.1,0.7,12.4,11c0.7,5.9,0.6,6.2-3.7,8C1188.1,1001.1,1178.4,1002,1170.5,1001z"/>
		<path class="st0" d="M85.4,997.7c-0.4-1.8-0.6-39-0.4-82.7l0.4-79.5l37.3-0.4c33.6-0.3,38-0.1,45.3,2.4
			c20.3,6.9,33.9,23.6,38.3,46.8c1.3,7-2.5,24.6-7.2,33.1c-4.9,8.6-15.1,18.6-23.2,22.5c-9.6,4.8-18.8,6-44.2,6h-23.1v25.2
			c0,13.9-0.4,26.2-0.8,27.4c-0.7,1.8-3.1,2.3-11.3,2.3C86.9,1000.8,86.1,1000.6,85.4,997.7z M162.5,920.7
			c13.4-5.9,19.7-15.6,19.8-30.2c0.1-12.8-2.8-18.8-12.9-26.4l-7.7-5.9l-26.6-0.4l-26.4-0.6v33.2v33.2h23.8
			C153,923.5,156.8,923,162.5,920.7L162.5,920.7z"/>
		<path class="st0" d="M224.2,949.9l0.4-51.1l8.7-0.4c8.4-0.4,8.7-0.3,11,3.9c1.1,2.3,2.5,4.2,2.8,4.2c0.4,0,4.6-2.1,9.4-4.5
			c7.5-4.1,10-4.6,18.6-4.5c9.7,0,20.1,3.5,22.6,7.6c0.6,0.8-1.4,5.1-4.2,9.3c-4.4,6.6-5.8,7.7-8.3,6.9c-13.8-4.2-21.5-3.8-30,1.5
			c-7.6,4.9-8.2,7-8.9,43.5l-0.7,33.8l-11,0.4l-10.8,0.4L224.2,949.9L224.2,949.9z"/>
		<path class="st0" d="M451.3,997.7c-2-2.7-2.3-8.7-2.3-40.8v-37.7h-8.4h-8.4v-7.9c0-11.3,1.4-13.2,9.7-13.2h6.9l0.6-17.2
			c0.8-20.1,3.1-27.6,10.6-35.2c8.3-8.6,17.2-11.7,32.8-11.4c13.6,0.1,25.5,3.5,27,7.7c1.1,3-5.6,16.6-8,16.6c-1.3,0-5.5-1-9.3-2.3
			c-13.9-4.6-27.9,2-30.1,13.9c-0.4,2.5-0.7,9.6-0.4,15.8l0.4,11.3l33.1,0.4c18.1,0.1,33.5,0.8,34,1.4c0.8,0.8,1.5,58.2,1.1,97.8
			c0,3.7-0.1,3.8-8,3.8c-4.5,0-9-0.6-10-1.1c-3.5-2.4-4.5-11.7-4.5-45.6v-34.9h-23.2h-23.4l-0.3,40.5l-0.4,40.4l-8.7,0.4
			C454.5,1001,453.2,1000.6,451.3,997.7L451.3,997.7z"/>
		<path class="st0" d="M668.6,997.9c-12.9-4.1-23.8-14.3-28.4-26.6c-3.8-10-3.1-26.9,1.3-36.7c3.2-6.8,12.9-16.7,21.8-22.2
			c5.3-3.2,6.3-4.9,3.8-6.5c-0.8-0.6-4.6-5.3-8.4-10.8c-11.5-16.5-12.4-32.2-2.4-47.1c8.2-12.2,19.7-17.6,37-17.6
			c14.3,0,22.8,3.1,30.5,11.4c8.9,9.6,11.5,15.8,11.5,27.6c0,10.8-2.5,17.6-9.6,26c-4.9,5.8-19.1,16.9-21.7,16.9c-3,0-2.1,2,4.2,9.4
			c3.2,3.9,8.7,10.6,12.2,14.9s7,7.9,7.9,8c1.7,0,4.9-7,8.9-19c5.5-17.2,4.2-16.2,20.4-16.2c7.9,0,14.9,0.6,15.9,1.1
			c1.1,0.7,1.1,2.8-0.3,8.4c-2.5,9.7-3,10.1-8.3,10.1c-3.8,0-4.9,0.8-6.9,4.9c-1.3,2.8-2.4,5.6-2.4,6.5c0,0.7-2.4,6.5-5.2,12.8
			l-5.2,11.4l6,5.3c3.4,3.1,9.7,6.8,14.2,8.4c9,3.2,9.6,4.2,8.7,14.2c-0.4,5.6-1,6.6-4.1,7.2c-6.8,1.3-21.8-3-29.7-8.3
			c-4.1-2.8-8-6.2-8.7-7.5c-1.1-2-1.7-1.8-5.2,1.4c-7.5,6.9-12.9,9.8-23.8,12.5C689.3,1001.5,680.1,1001.5,668.6,997.9L668.6,997.9z
			 M700.5,976.5c5.9-1.8,15.8-8.4,15.8-10.6c0-0.6-1.7-3.1-3.8-5.5c-2.3-2.4-9.6-11.4-16.6-20c-6.9-8.6-13.2-15.5-14.1-15.6
			c-0.7,0-4.5,2.4-8.3,5.3c-17.2,12.9-16.9,33.1,0.4,44C681.1,978.9,690.1,979.6,700.5,976.5L700.5,976.5z M694.2,894.1
			c8-5.5,17.6-16,18.7-20.7c0.6-2.1,0-6.6-1.1-10.3c-4.9-15.8-28.7-17.4-37.7-2.7c-1.5,2.5-2.8,6-2.8,7.6c0,5.9,4.4,15.2,9.8,21.1
			c3.1,3.4,5.6,6.8,5.6,7.6C686.7,898.9,687.9,898.6,694.2,894.1z"/>
		<path class="st0" d="M794.8,999.4c-0.1-0.7-0.3-38.1,0-83l0.3-81.7l11,0.4l10.8,0.4l0.4,71.5l0.3,71.3h40
			c25.2,0,40.2,0.6,40.5,1.4c0.3,0.7,0.1,5.6-0.3,10.8l-0.7,9.6l-50.9,0.4C812.8,1000.7,795.2,1000.4,794.8,999.4z"/>
	</g>
	<g id="LOGO">
		<path id="cerdo_1_" class="st1" d="M530.6,764.9c-6.3-2.4-10-9.1-18.7-35c-4.2-12.4-8.4-23.8-9.4-25.3c-0.8-1.5-5.2-4.8-9.6-7.3
			c-4.5-2.4-14.9-8.9-23.5-14.2c-8.4-5.3-21.7-13.4-29.1-17.9c-7.5-4.4-14.9-9.8-16.6-12.2c-4.8-6.3-5.5-16.9-4.9-64.6
			c0.4-41.9,0.6-43.5,3.7-48.4c3.8-6.2,8.7-8.4,22.1-9.7c10.1-1,10.1-1,16.3-8.3c3.2-3.9,9.7-12.1,14.1-18c9-12,8.9-11.4,2.3-24.8
			c-12.7-25.7-18.3-39.5-18.3-44.6c0-15.3,14.3-21.8,48.4-21.8c18.1,0.1,23.8,1.1,40.8,8l12.5,5.1l14.9-7.2
			c21.2-10.3,31.7-13.9,48.2-17.3c37.8-7.5,73.9-5.9,108.7,4.5c5.5,1.7,10.6,3.5,11.3,4.1c0.8,0.6,3.9,1.8,7,2.8s12,5.2,19.7,9.4
			c74.1,40.9,108.5,116.5,87.2,191.7c-6.3,22.4-16,40.4-32.6,60.9c-4.9,6-8.9,11.8-8.9,12.9s-1.3,4.8-2.8,8
			c-1.5,3.4-6.9,17.3-12,31.1c-11.1,30.5-12.1,32.4-18,36c-4.5,2.8-6.8,3-37.3,3h-32.5l-4.6-4.6c-2.7-2.7-6-8.7-8-13.8
			c-1.8-4.9-3.9-10.7-4.6-12.8c-1.1-3.1-2.1-3.7-5.2-3.2c-2,0.4-15.1,1.7-29,3c-13.9,1.1-28.8,2.7-33.1,3.1l-7.7,1l-4.9,9.7
			c-2.8,5.2-7,11.4-9.6,13.6l-4.5,4.1l-34.9-0.1C548.3,765.8,531.7,765.4,530.6,764.9L530.6,764.9z M771.1,700.1
			c12.5-33.9,13.4-35.6,24.3-49.1c15.5-19.3,24.9-39,29.3-61.2c5.2-27.1-1.4-58.8-17.9-85c-15.2-24.5-44.6-47.8-72.3-57.5
			c-5.8-2-11.8-4.2-13.4-4.9c-1.5-0.7-8.9-2.7-16.2-4.4c-20.3-4.6-52.3-4.4-75,0.7c-9.1,2-20.8,5.6-25.9,7.9
			c-5.1,2.4-10.6,4.2-12.1,4.2c-2.3,0-2.5,0.7-1.8,3.9c3.5,14.9,1.8,21.9-6.6,27c-10.6,6.5-19,3-31.7-13.2
			c-1.7-2.3-6.5-6.2-10.6-8.9c-12.1-7.7-34.7-13.2-34.7-8.4c0,1.1,3.8,10,8.4,19.7c8.7,18.4,10.3,25.7,6.9,32.4
			c-1.7,3.2-27.9,37.4-39.5,51.8c-5.5,6.6-7.7,8.3-12,9.1c-3,0.4-7.2,1.3-9.6,1.8l-4.2,1l-0.4,31.8l-0.3,31.8l12.2,7.3
			c15.1,9,46.1,28.1,56.4,34.7c9.1,6,10.1,7.5,16.3,25.7c2.8,8.2,6.3,18,7.7,21.8l2.7,7l16.7,0.4l16.7,0.4l3.8-8.2
			c2.1-4.5,5.3-9.8,7.2-12c5.9-6.2,6.6-6.3,73.9-12.4c44.5-3.9,44.5-3.9,50.6,2.5c3.4,3.5,6.2,8.9,8.6,15.8
			c4.8,14.5,5.3,14.9,19.8,14.3l12.1-0.4L771.1,700.1L771.1,700.1z"/>
		<path id="coin_1_" class="st1" d="M792.7,413.8c-3-2.7-6.5-5.2-7.7-5.6c-3.2-1.1-3.2-4.6,0.1-8.9c5.2-6.8,9.1-21.4,9-33.8
			c-0.4-24.8-14.9-45.7-38.4-55.1c-40.2-16.5-85.7,14.9-85.8,59.1c0,6.5-0.1,6.6-5.2,7.6c-3,0.6-7.9,1.1-11,1.1l-5.6,0.1l-0.4-8.3
			c-1.3-24.2,9-48.7,27.4-65.6c13.8-12.7,38.5-22.5,56.3-22.5c9.8,0,27.6,3.7,36,7.6c8.2,3.7,19.8,12.5,28.7,21.5
			c16.9,17.4,24.9,47,19.7,72.4c-2.7,12.8-13.4,34.9-17,34.9C798.3,418.5,795.5,416.4,792.7,413.8L792.7,413.8z"/>
	</g>
</g>
<g id="EXTRAS">
	<g id="COLORES">
		<rect id="NARANJA" x="28" y="-225.8" class="st1" width="169.1" height="169.1"/>
		<rect id="GRIS" x="254.5" y="-225.8" class="st0" width="169.1" height="169.1"/>
	</g>
	<g id="GUIAS">
	</g>
</g>
</svg>
